<svg width="140" height="31" viewBox="0 0 140 31" fill="none" xmlns="http://www.w3.org/2000/svg">
<g clip-path="url(#clip0_241_33)">
<mask id="mask0_241_33" style="mask-type:luminance" maskUnits="userSpaceOnUse" x="0" y="1" width="46" height="30">
<path d="M45.4582 1.19421H0.5V30.0353H45.4582V1.19421Z" fill="white"/>
</mask>
<g mask="url(#mask0_241_33)">
<path d="M29.0448 4.22888H16.8784V26.5326H29.0448V4.22888Z" fill="#FF5A00"/>
<path d="M17.6878 15.3808C17.6878 10.8494 19.7755 6.82752 22.9791 4.22896C20.6214 2.33741 17.6473 1.19421 14.4032 1.19421C6.71821 1.19421 0.5 7.53917 0.5 15.3808C0.5 23.2225 6.71821 29.5675 14.4032 29.5675C17.6473 29.5675 20.6214 28.4243 22.9791 26.5327C19.771 23.9709 17.6878 19.9123 17.6878 15.3808Z" fill="#EB001B"/>
<path d="M45.4572 15.3808C45.4572 23.2225 39.2389 29.5675 31.5539 29.5675C28.3098 29.5675 25.3357 28.4243 22.978 26.5327C26.2221 23.9296 28.2694 19.9123 28.2694 15.3808C28.2694 10.8494 26.1816 6.82752 22.978 4.22896C25.3312 2.33741 28.3053 1.19421 31.5494 1.19421C39.2389 1.19421 45.4572 7.58051 45.4572 15.3808Z" fill="#F79E1B"/>
</g>
</g>
<g clip-path="url(#clip1_241_33)">
<mask id="mask1_241_33" style="mask-type:luminance" maskUnits="userSpaceOnUse" x="59" y="4" width="71" height="23">
<path d="M129.391 4.37854H59.7944V26.7019H129.391V4.37854Z" fill="white"/>
</mask>
<g mask="url(#mask1_241_33)">
<path d="M85.313 25.8019L88.848 5.39197H94.3715L90.947 25.8019H85.313Z" fill="white"/>
<path d="M110.944 5.61878C109.839 5.16523 108.071 4.71167 105.862 4.71167C100.338 4.71167 96.3614 7.54639 96.3614 11.6284C96.3614 14.6899 99.1232 16.2773 101.333 17.2978C103.542 18.3183 104.205 18.9986 104.205 19.9058C104.205 21.2664 102.437 21.9468 100.891 21.9468C98.6813 21.9468 97.4661 21.6066 95.5881 20.8129L94.8148 20.4727L94.0415 25.1216C95.3672 25.6886 97.7975 26.2555 100.338 26.2555C106.193 26.2555 110.06 23.4208 110.06 19.112C110.06 16.7309 108.624 14.9166 105.31 13.4426C103.321 12.4221 102.106 11.8551 102.106 10.8346C102.106 9.92753 103.1 9.02045 105.31 9.02045C107.188 9.02045 108.513 9.36061 109.507 9.81414L110.06 10.0409L110.944 5.61878Z" fill="white"/>
<path d="M120.442 5.39197C119.117 5.39197 118.122 5.50536 117.57 6.86602L109.285 25.8019H115.25L116.355 22.4003H123.425L124.088 25.8019H129.39L124.75 5.39197H120.442ZM117.902 18.9986C118.233 17.9781 120.111 12.989 120.111 12.989C120.111 12.989 120.553 11.7418 120.884 10.948L121.215 12.8757C121.215 12.8757 122.32 17.9781 122.541 19.112H117.902V18.9986Z" fill="white"/>
<path d="M75.1501 19.6789L74.5977 16.7308C73.6035 13.3292 70.3998 9.58737 66.8647 7.77314L71.8359 25.9153H77.8014L86.7495 5.50537H80.7841L75.1501 19.6789Z" fill="white"/>
<path d="M59.7944 5.39197L60.7887 5.61875C67.8588 7.31958 72.7195 11.6284 74.5975 16.7308L72.609 7.0928C72.2776 5.73213 71.2834 5.39197 70.0682 5.39197H59.7944Z" fill="white"/>
<path d="M59.7944 5.39197C66.8646 7.0928 72.7195 11.515 74.5975 16.6174L72.7195 8.56686C72.3881 7.20619 71.2834 6.41247 70.0682 6.41247L59.7944 5.39197Z" fill="white"/>
<path d="M59.7944 5.39197C66.8646 7.0928 72.7195 11.515 74.5975 16.6174L73.2718 12.1953C72.9405 10.8347 72.4986 9.47397 70.952 8.90702L59.7944 5.39197Z" fill="white"/>
<path d="M90.947 25.8021L86.1967 20.813L85.313 25.8021H90.947Z" fill="white"/>
</g>
</g>
<defs>
<clipPath id="clip0_241_33">
<rect width="45" height="29.2268" fill="white" transform="translate(0.5 0.886597)"/>
</clipPath>
<clipPath id="clip1_241_33">
<rect width="70" height="22.7778" fill="white" transform="translate(59.3906 4.11108)"/>
</clipPath>
</defs>
</svg>
