<svg width="14" height="15" viewBox="0 0 14 15" fill="none" xmlns="http://www.w3.org/2000/svg">
<g clip-path="url(#clip0_2_3182)">
<path fill-rule="evenodd" clip-rule="evenodd" d="M0 4.21875C0 3.29049 0.368749 2.40025 1.02513 1.74388C1.6815 1.0875 2.57174 0.71875 3.5 0.71875L10.5 0.71875C11.4283 0.71875 12.3185 1.0875 12.9749 1.74388C13.6313 2.40025 14 3.29049 14 4.21875V10.7812C14 11.7095 13.6313 12.5997 12.9749 13.2561C12.3185 13.9125 11.4283 14.2812 10.5 14.2812H3.5C2.57174 14.2812 1.6815 13.9125 1.02513 13.2561C0.368749 12.5997 0 11.7095 0 10.7812V4.21875ZM7 10.3438C7.69619 10.3438 8.36387 10.0672 8.85616 9.57491C9.34844 9.08262 9.625 8.41494 9.625 7.71875C9.625 7.02256 9.34844 6.35488 8.85616 5.86259C8.36387 5.37031 7.69619 5.09375 7 5.09375C6.30381 5.09375 5.63613 5.37031 5.14384 5.86259C4.65156 6.35488 4.375 7.02256 4.375 7.71875C4.375 8.41494 4.65156 9.08262 5.14384 9.57491C5.63613 10.0672 6.30381 10.3438 7 10.3438ZM7 11.6562C8.04429 11.6562 9.04581 11.2414 9.78423 10.503C10.5227 9.76456 10.9375 8.76304 10.9375 7.71875C10.9375 6.67446 10.5227 5.67294 9.78423 4.93452C9.04581 4.19609 8.04429 3.78125 7 3.78125C5.95571 3.78125 4.95419 4.19609 4.21577 4.93452C3.47734 5.67294 3.0625 6.67446 3.0625 7.71875C3.0625 8.76304 3.47734 9.76456 4.21577 10.503C4.95419 11.2414 5.95571 11.6562 7 11.6562ZM11.1562 4.65625C11.4463 4.65625 11.7245 4.54102 11.9296 4.3359C12.1348 4.13078 12.25 3.85258 12.25 3.5625C12.25 3.27242 12.1348 2.99422 11.9296 2.7891C11.7245 2.58398 11.4463 2.46875 11.1562 2.46875C10.8662 2.46875 10.588 2.58398 10.3829 2.7891C10.1777 2.99422 10.0625 3.27242 10.0625 3.5625C10.0625 3.85258 10.1777 4.13078 10.3829 4.3359C10.588 4.54102 10.8662 4.65625 11.1562 4.65625Z" fill="white"/>
</g>
<defs>
<clipPath id="clip0_2_3182">
<rect width="14" height="13.5625" fill="white" transform="translate(0 0.71875)"/>
</clipPath>
</defs>
</svg>
