<svg width="8" height="15" viewBox="0 0 8 15" fill="none" xmlns="http://www.w3.org/2000/svg">
<path d="M2.14588 8.27082H0.375529C0.0894118 8.27082 0 8.16353 0 7.89529V5.73153C0 5.44541 0.107294 5.356 0.375529 5.356H2.14588V3.78235C2.14588 3.06706 2.27106 2.38753 2.62871 1.76165C3.00424 1.11788 3.54071 0.688706 4.22024 0.438353C4.66729 0.277411 5.11435 0.205882 5.59718 0.205882H7.34965C7.6 0.205882 7.70729 0.313176 7.70729 0.563529V2.60212C7.70729 2.85247 7.6 2.95976 7.34965 2.95976L5.90118 2.97765C5.41835 2.97765 5.168 3.21012 5.168 3.71082V5.32024H7.24235C7.52847 5.32024 7.63576 5.42753 7.63576 5.71365V7.87741C7.63576 8.16353 7.54635 8.25294 7.24235 8.25294H5.168V14.0826C5.168 14.3866 5.07859 14.4939 4.75671 14.4939H2.52141C2.25318 14.4939 2.14588 14.3866 2.14588 14.1184V8.27082Z" fill="white"/>
</svg>
