<svg width="11" height="15" viewBox="0 0 11 15" fill="none" xmlns="http://www.w3.org/2000/svg">
<path d="M10.1596 5.78895L2.2913 1.1123C2.06635 0.97535 1.81005 0.9022 1.5488 0.9C1.13795 0.9 0.744153 1.06775 0.453753 1.36695C0.161906 1.66921 -0.000832028 2.07319 3.19916e-06 2.49335V12.5303C3.19916e-06 12.8108 0.0731532 13.0864 0.211753 13.3278C0.350353 13.5693 0.548903 13.7683 0.787603 13.9042C1.0263 14.04 1.2958 14.1072 1.56805 14.0995C1.8414 14.0915 2.10734 14.0087 2.33695 13.8602L10.2146 8.74025C10.4594 8.5824 10.6607 8.3624 10.7982 8.10115C10.9359 7.83865 11.0052 7.5456 10.9995 7.2492C10.994 6.9522 10.9137 6.66125 10.7663 6.4055C10.6189 6.14975 10.4099 5.93745 10.1591 5.7895L10.1596 5.78895Z" fill="white"/>
</svg>
