<svg width="17" height="17" viewBox="0 0 17 17" fill="none" xmlns="http://www.w3.org/2000/svg">
<path fill-rule="evenodd" clip-rule="evenodd" d="M15.8418 12.6652L13.3781 10.1879C13.1326 9.95161 12.8035 9.82244 12.4628 9.82878C12.1222 9.83513 11.7981 9.97646 11.5616 10.2217L10.3056 11.4681L10.0544 11.3309C7.82835 10.1976 6.02161 8.38406 4.89505 6.15509L4.75978 5.91355L5.60035 5.07781L6.00615 4.66525C6.51822 4.18216 6.53561 3.35898 6.04479 2.84498L3.58105 0.370609C3.33564 0.13432 3.00646 0.00514877 2.66585 0.0114899C2.32523 0.0178311 2.00108 0.159166 1.76464 0.404425L1.069 1.10683L1.08832 1.12616C0.850667 1.43525 0.658689 1.77691 0.518278 2.14064C0.388083 2.4712 0.300425 2.81696 0.257411 3.16961C-0.0614263 5.8807 1.17528 8.35797 4.5279 11.7203C9.16553 16.3579 12.895 16.0159 13.0496 16.0004C13.4038 15.958 13.7512 15.8707 14.0834 15.7405C14.4437 15.5985 14.7819 15.4062 15.0882 15.1685V15.1821L15.7935 14.4893C16.2988 13.9917 16.3114 13.1811 15.8225 12.6681L15.8418 12.6652Z" fill="#F7F7F7"/>
</svg>
