<svg width="30" height="35" viewBox="0 0 30 35" fill="none" xmlns="http://www.w3.org/2000/svg">
<g clip-path="url(#clip0_2_3268)">
<path fill-rule="evenodd" clip-rule="evenodd" d="M25.7344 27.835L20.4933 22.5686C20.3446 22.4192 20.1678 22.3007 19.9731 22.2198C19.7784 22.1389 19.5697 22.0973 19.3589 22.0973C19.148 22.0973 18.9393 22.1389 18.7446 22.2198C18.55 22.3007 18.3732 22.4192 18.2244 22.5686L16.8618 23.9383C16.6589 24.1428 16.5142 24.3978 16.4428 24.677C16.3713 24.9561 16.3757 25.2493 16.4554 25.5261L15.9409 26.0442C15.5757 26.4118 13.3015 25.8478 10.5522 23.0856C7.80284 20.3233 7.24239 18.0385 7.60759 17.671L8.12218 17.1535C8.39786 17.2335 8.69001 17.2378 8.96795 17.166C9.24589 17.0942 9.49938 16.9489 9.70179 16.7453L11.0644 15.3757C11.365 15.0724 11.5336 14.6626 11.5336 14.2356C11.5336 13.8086 11.365 13.3989 11.0644 13.0956L5.82567 7.8269C5.67705 7.67729 5.50031 7.55856 5.30562 7.47753C5.11092 7.39651 4.90212 7.3548 4.69124 7.3548C4.48036 7.3548 4.27156 7.39651 4.07687 7.47753C3.88218 7.55856 3.70543 7.67729 3.55681 7.8269L2.19185 9.19657C1.989 9.40116 1.84445 9.6562 1.77311 9.93534C1.70178 10.2145 1.70625 10.5076 1.78606 10.7844C1.78606 10.7844 1.35029 11.2267 1.32853 11.2549C-0.121708 12.871 -0.393407 15.4239 0.567537 18.472C1.75393 21.8435 3.71017 24.8919 6.28086 27.3751C8.74551 29.9546 11.7799 31.9211 15.1411 33.1172C16.2132 33.4756 17.3341 33.6672 18.4644 33.6853C19.2044 33.7191 19.9437 33.6033 20.638 33.3448C21.3323 33.0863 21.9673 32.6905 22.5052 32.181L22.791 31.8934C23.0668 31.9737 23.3591 31.9781 23.6372 31.9061C23.9153 31.8342 24.1689 31.6886 24.3712 31.4847L25.7344 30.115C26.0349 29.8117 26.2036 29.402 26.2036 28.975C26.2036 28.548 26.0349 28.1383 25.7344 27.835ZM4.68948 8.96721L9.93056 14.2342L8.56854 15.6044L8.54913 15.5844L5.948 12.971L3.32628 10.3369L4.68948 8.96721ZM21.3707 31.043C20.2163 32.2028 18.1762 32.3957 15.6262 31.5823C12.5092 30.4647 9.69677 28.6336 7.41352 26.2354C5.02538 23.9358 3.20525 21.112 2.09717 17.9874C1.28913 15.4245 1.47967 13.3744 2.63409 12.2141L2.77877 12.0688L6.84601 16.1561L6.47258 16.5283C4.92648 18.0844 6.78368 21.5747 9.41774 24.2212C11.389 26.2048 13.8314 27.7497 15.5845 27.7497C15.8583 27.7614 16.1316 27.7173 16.3877 27.62C16.6439 27.5227 16.8777 27.3744 17.0747 27.184L17.4476 26.8094L21.5148 30.8966L21.3707 31.043ZM23.2367 30.3473L17.9957 25.0804L19.3583 23.7107L24.5994 28.9777C24.5994 28.9777 23.2373 30.3456 23.2367 30.345V30.3473Z" fill="#3A83DF"/>
<path fill-rule="evenodd" clip-rule="evenodd" d="M20.3144 13.2732C19.5677 12.5177 18.678 11.9184 17.6973 11.5102C16.7167 11.102 15.6645 10.8931 14.6023 10.8956C14.3884 10.8956 14.1834 10.9805 14.0322 11.1317C13.8809 11.2829 13.796 11.488 13.796 11.7018C13.796 11.9157 13.8809 12.1208 14.0322 12.272C14.1834 12.4232 14.3884 12.5081 14.6023 12.5081C15.4545 12.5102 16.298 12.6801 17.0845 13.0082C17.8711 13.3362 18.5853 13.816 19.1865 14.4201C19.7876 15.0242 20.2639 15.7408 20.5881 16.5289C20.9123 17.3171 21.0781 18.1614 21.076 19.0136C21.076 19.2263 21.1605 19.4304 21.3109 19.5808C21.4614 19.7312 21.6654 19.8158 21.8782 19.8158C22.0909 19.8158 22.2949 19.7312 22.4454 19.5808C22.5958 19.4304 22.6803 19.2263 22.6803 19.0136C22.6837 17.9481 22.4764 16.8924 22.0704 15.9073C21.6643 14.9221 21.0676 14.027 20.3144 13.2732ZM23.192 10.3816C22.0689 9.24545 20.731 8.34419 19.2562 7.73032C17.7814 7.11644 16.1992 6.80222 14.6017 6.80597C14.3878 6.80597 14.1828 6.89092 14.0316 7.04212C13.8804 7.19333 13.7954 7.39841 13.7954 7.61225C13.7954 7.82608 13.8804 8.03116 14.0316 8.18237C14.1828 8.33358 14.3878 8.41852 14.6017 8.41852C15.9897 8.42184 17.3635 8.69852 18.6446 9.23278C19.9256 9.76704 21.0889 10.5484 22.0681 11.5322C23.0472 12.5161 23.8229 13.6832 24.3509 14.9668C24.879 16.2505 25.149 17.6256 25.1456 19.0136C25.1456 19.2263 25.2301 19.4304 25.3805 19.5808C25.531 19.7312 25.735 19.8158 25.9478 19.8158C26.1605 19.8158 26.3645 19.7312 26.515 19.5808C26.6654 19.4304 26.7499 19.2263 26.7499 19.0136C26.755 17.4113 26.4432 15.8238 25.8326 14.3424C25.222 12.861 24.3246 11.5149 23.192 10.3816ZM17.4369 16.1643C17.0681 15.787 16.6269 15.4881 16.1399 15.2854C15.6528 15.0827 15.1298 14.9804 14.6023 14.9846C14.3884 14.9846 14.1834 15.0695 14.0322 15.2207C13.8809 15.3719 13.796 15.577 13.796 15.7909C13.796 16.0047 13.8809 16.2098 14.0322 16.361C14.1834 16.5122 14.3884 16.5971 14.6023 16.5971C14.9187 16.5926 15.2327 16.6529 15.525 16.7743C15.8173 16.8957 16.0817 17.0755 16.3019 17.3028C16.5277 17.5259 16.7066 17.7921 16.8278 18.0855C16.949 18.379 17.0102 18.6938 17.0076 19.0112C17.0071 19.2245 17.0913 19.4292 17.2418 19.5804C17.3922 19.7316 17.5965 19.8169 17.8097 19.8175C18.023 19.8169 18.2273 19.7316 18.3777 19.5804C18.5281 19.4292 18.6124 19.2245 18.6119 19.0112C18.6162 18.4823 18.5144 17.9578 18.3126 17.4688C18.1108 16.9798 17.813 16.5363 17.4369 16.1643Z" fill="#F3D533"/>
</g>
<defs>
<clipPath id="clip0_2_3268">
<rect width="29.9927" height="34.1094" fill="white" transform="translate(0.00341797 0.109375)"/>
</clipPath>
</defs>
</svg>
