<svg width="25" height="26" viewBox="0 0 25 26" fill="none" xmlns="http://www.w3.org/2000/svg">
<g clip-path="url(#clip0_2_3291)">
<path fill-rule="evenodd" clip-rule="evenodd" d="M21.3389 4.33312C20.1797 3.16541 18.8014 2.23804 17.283 1.60421C15.7646 0.970383 14.136 0.64256 12.4907 0.639547C10.8453 0.636535 9.21551 0.958392 7.6948 1.58666C6.1741 2.21492 4.79239 3.13724 3.62894 4.30069C2.46548 5.46415 1.54317 6.84585 0.914905 8.36656C0.286639 9.88726 -0.035218 11.517 -0.0322056 13.1624C-0.0291932 14.8078 0.29863 16.4364 0.93246 17.9548C1.56629 19.4732 2.49365 20.8515 3.66136 22.0107C4.82055 23.1784 6.19887 24.1057 7.71726 24.7396C9.23566 25.3734 10.8642 25.7012 12.5096 25.7042C14.155 25.7072 15.7848 25.3854 17.3055 24.7571C18.8262 24.1289 20.2079 23.2065 21.3713 22.0431C22.5348 20.8796 23.4571 19.4979 24.0854 17.9772C24.7136 16.4565 25.0355 14.8267 25.0325 13.1814C25.0295 11.536 24.7016 9.90741 24.0678 8.38902C23.434 6.87062 22.5066 5.4923 21.3389 4.33312ZM12.5001 23.652C10.4274 23.652 8.40115 23.0373 6.67771 21.8858C4.95426 20.7342 3.611 19.0974 2.81779 17.1825C2.02457 15.2675 1.81703 13.1603 2.22141 11.1273C2.62579 9.09438 3.62392 7.22701 5.08959 5.76134C6.55526 4.29567 8.42263 3.29754 10.4556 2.89316C12.4885 2.48878 14.5957 2.69633 16.5107 3.48954C18.4257 4.28275 20.0625 5.62601 21.214 7.34946C22.3656 9.0729 22.9802 11.0991 22.9802 13.1719C22.977 15.9504 21.8718 18.6142 19.9071 20.5789C17.9424 22.5436 15.2786 23.6488 12.5001 23.652Z" fill="#3A83DF"/>
<path fill-rule="evenodd" clip-rule="evenodd" d="M16.6612 15.9045L13.5096 12.7535V6.27802C13.5096 6.01016 13.4032 5.75328 13.2138 5.56387C13.0244 5.37447 12.7676 5.26807 12.4997 5.26807C12.2318 5.26807 11.975 5.37447 11.7856 5.56387C11.5962 5.75328 11.4897 6.01016 11.4897 6.27802V13.1719C11.4898 13.4398 11.5962 13.6967 11.7857 13.8862L15.2326 17.3331C15.3264 17.4269 15.4378 17.5013 15.5603 17.5521C15.6829 17.6029 15.8142 17.629 15.9469 17.629C16.0795 17.629 16.2109 17.6029 16.3335 17.5521C16.456 17.5013 16.5674 17.4269 16.6612 17.3331C16.755 17.2393 16.8294 17.128 16.8801 17.0054C16.9309 16.8828 16.957 16.7515 16.957 16.6188C16.957 16.4862 16.9309 16.3548 16.8801 16.2323C16.8294 16.1097 16.755 15.9983 16.6612 15.9045Z" fill="#F3D533"/>
</g>
<defs>
<clipPath id="clip0_2_3291">
<rect width="25" height="25" fill="white" transform="translate(0 0.671875)"/>
</clipPath>
</defs>
</svg>
