<svg width="27" height="28" viewBox="0 0 27 28" fill="none" xmlns="http://www.w3.org/2000/svg">
<path fill-rule="evenodd" clip-rule="evenodd" d="M25.7344 21.835L20.4933 16.5686C20.3446 16.4192 20.1678 16.3007 19.9731 16.2198C19.7784 16.1389 19.5697 16.0973 19.3589 16.0973C19.148 16.0973 18.9393 16.1389 18.7446 16.2198C18.55 16.3007 18.3732 16.4192 18.2244 16.5686L16.8618 17.9383C16.6589 18.1428 16.5142 18.3978 16.4428 18.677C16.3713 18.9561 16.3757 19.2493 16.4554 19.5261L15.9409 20.0442C15.5757 20.4118 13.3015 19.8478 10.5522 17.0856C7.80284 14.3233 7.24239 12.0385 7.60759 11.671L8.12218 11.1535C8.39786 11.2335 8.69001 11.2378 8.96795 11.166C9.24589 11.0942 9.49938 10.9489 9.70179 10.7453L11.0644 9.37566C11.365 9.07236 11.5336 8.66264 11.5336 8.23564C11.5336 7.80865 11.365 7.39893 11.0644 7.09563L5.82567 1.8269C5.67705 1.67729 5.50031 1.55856 5.30562 1.47753C5.11092 1.39651 4.90212 1.3548 4.69124 1.3548C4.48036 1.3548 4.27156 1.39651 4.07687 1.47753C3.88218 1.55856 3.70543 1.67729 3.55681 1.8269L2.19185 3.19657C1.989 3.40116 1.84445 3.6562 1.77311 3.93534C1.70178 4.21447 1.70625 4.50759 1.78606 4.78442C1.78606 4.78442 1.35029 5.22667 1.32853 5.2549C-0.121708 6.87097 -0.393407 9.42388 0.567537 12.472C1.75393 15.8435 3.71017 18.8919 6.28086 21.3751C8.74551 23.9546 11.7799 25.9211 15.1411 27.1172C16.2132 27.4756 17.3341 27.6672 18.4644 27.6853C19.2044 27.7191 19.9437 27.6033 20.638 27.3448C21.3323 27.0863 21.9673 26.6905 22.5052 26.181L22.791 25.8934C23.0668 25.9737 23.3591 25.9781 23.6372 25.9061C23.9153 25.8342 24.1689 25.6886 24.3712 25.4847L25.7344 24.115C26.0349 23.8117 26.2036 23.402 26.2036 22.975C26.2036 22.548 26.0349 22.1383 25.7344 21.835ZM4.68948 2.96721L9.93056 8.23417L8.56854 9.60443L8.54913 9.58443L5.948 6.97095L3.32628 4.33688L4.68948 2.96721ZM21.3707 25.043C20.2163 26.2028 18.1762 26.3957 15.6262 25.5823C12.5092 24.4647 9.69677 22.6336 7.41352 20.2354C5.02538 17.9358 3.20525 15.112 2.09717 11.9874C1.28913 9.42447 1.47967 7.37438 2.63409 6.21407L2.77877 6.06882L6.84601 10.1561L6.47258 10.5283C4.92648 12.0844 6.78368 15.5747 9.41774 18.2212C11.389 20.2048 13.8314 21.7497 15.5845 21.7497C15.8583 21.7614 16.1316 21.7173 16.3877 21.62C16.6439 21.5227 16.8777 21.3744 17.0747 21.184L17.4476 20.8094L21.5148 24.8966L21.3707 25.043ZM23.2367 24.3473L17.9957 19.0804L19.3583 17.7107L24.5994 22.9777C24.5994 22.9777 23.2373 24.3456 23.2367 24.345V24.3473Z" fill="#3A83DF"/>
<path fill-rule="evenodd" clip-rule="evenodd" d="M20.3144 7.27323C19.5677 6.51774 18.678 5.91843 17.6973 5.51022C16.7167 5.10201 15.6645 4.89307 14.6023 4.89557C14.3884 4.89557 14.1834 4.98052 14.0322 5.13172C13.8809 5.28293 13.796 5.48801 13.796 5.70184C13.796 5.91568 13.8809 6.12076 14.0322 6.27197C14.1834 6.42317 14.3884 6.50812 14.6023 6.50812C15.4545 6.5102 16.298 6.68012 17.0845 7.00818C17.8711 7.33624 18.5853 7.81601 19.1865 8.4201C19.7876 9.02419 20.2639 9.74077 20.5881 10.5289C20.9123 11.3171 21.0781 12.1614 21.076 13.0136C21.076 13.2263 21.1605 13.4304 21.3109 13.5808C21.4614 13.7312 21.6654 13.8158 21.8782 13.8158C22.0909 13.8158 22.2949 13.7312 22.4454 13.5808C22.5958 13.4304 22.6803 13.2263 22.6803 13.0136C22.6837 11.9481 22.4764 10.8924 22.0704 9.90726C21.6643 8.92212 21.0676 8.02695 20.3144 7.27323ZM23.192 4.38157C22.0689 3.24545 20.731 2.34419 19.2562 1.73032C17.7814 1.11644 16.1992 0.802221 14.6017 0.805972C14.3878 0.805972 14.1828 0.890919 14.0316 1.04212C13.8804 1.19333 13.7954 1.39841 13.7954 1.61225C13.7954 1.82608 13.8804 2.03116 14.0316 2.18237C14.1828 2.33358 14.3878 2.41852 14.6017 2.41852C15.9897 2.42184 17.3635 2.69852 18.6446 3.23278C19.9256 3.76704 21.0889 4.5484 22.0681 5.53225C23.0472 6.5161 23.8229 7.68318 24.3509 8.96683C24.879 10.2505 25.149 11.6256 25.1456 13.0136C25.1456 13.2263 25.2301 13.4304 25.3805 13.5808C25.531 13.7312 25.735 13.8158 25.9478 13.8158C26.1605 13.8158 26.3645 13.7312 26.515 13.5808C26.6654 13.4304 26.7499 13.2263 26.7499 13.0136C26.755 11.4113 26.4432 9.82381 25.8326 8.34241C25.222 6.86101 24.3246 5.51493 23.192 4.38157ZM17.4369 10.1643C17.0681 9.78703 16.6269 9.4881 16.1399 9.28539C15.6528 9.08268 15.1298 8.98036 14.6023 8.98458C14.3884 8.98458 14.1834 9.06952 14.0322 9.22073C13.8809 9.37194 13.796 9.57701 13.796 9.79085C13.796 10.0047 13.8809 10.2098 14.0322 10.361C14.1834 10.5122 14.3884 10.5971 14.6023 10.5971C14.9187 10.5926 15.2327 10.6529 15.525 10.7743C15.8173 10.8957 16.0817 11.0755 16.3019 11.3028C16.5277 11.5259 16.7066 11.7921 16.8278 12.0855C16.949 12.379 17.0102 12.6938 17.0076 13.0112C17.0071 13.2245 17.0913 13.4292 17.2418 13.5804C17.3922 13.7316 17.5965 13.8169 17.8097 13.8175C18.023 13.8169 18.2273 13.7316 18.3777 13.5804C18.5281 13.4292 18.6124 13.2245 18.6119 13.0112C18.6162 12.4823 18.5144 11.9578 18.3126 11.4688C18.1108 10.9798 17.813 10.5363 17.4369 10.1643Z" fill="#F3D533"/>
</svg>
