<svg width="20" height="28" viewBox="0 0 20 28" fill="none" xmlns="http://www.w3.org/2000/svg">
<g clip-path="url(#clip0_2_3278)">
<path fill-rule="evenodd" clip-rule="evenodd" d="M10.0001 0.187296C7.37046 0.169674 4.84116 1.19577 2.96701 3.0405C1.09286 4.88524 0.0268994 7.398 0.00292969 10.0276C0.00292969 16.7616 8.94965 26.6471 9.33057 27.0649C9.41581 27.1576 9.51934 27.2316 9.63464 27.2822C9.74993 27.3328 9.87447 27.3589 10.0004 27.3589C10.1263 27.3589 10.2508 27.3328 10.3661 27.2822C10.4814 27.2316 10.585 27.1576 10.6702 27.0649C11.0506 26.6471 19.9973 16.7616 19.9973 10.0276C19.9734 7.398 18.9074 4.88524 17.0332 3.0405C15.1591 1.19577 12.6298 0.169674 10.0001 0.187296ZM10.0001 25.1152C6.98918 21.5951 1.80345 14.6494 1.80345 10.0276C1.82309 7.8716 2.69707 5.81139 4.23368 4.2989C5.77029 2.78641 7.84407 1.94514 10.0001 1.95962C12.1562 1.94514 14.23 2.78641 15.7666 4.2989C17.3032 5.81139 18.1772 7.8716 18.1968 10.0276C18.1968 14.6494 13.0121 21.5936 10.0001 25.1152Z" fill="#358BE4"/>
<path fill-rule="evenodd" clip-rule="evenodd" d="M9.99995 5.07689C9.02412 5.09236 8.07461 5.39585 7.27073 5.94926C6.46684 6.50267 5.84443 7.2813 5.48168 8.18734C5.11893 9.09337 5.03203 10.0864 5.23189 11.0417C5.43175 11.997 5.90946 12.8719 6.605 13.5565C7.30054 14.2411 8.1829 14.7049 9.14121 14.8896C10.0995 15.0744 11.0911 14.9718 11.9912 14.5947C12.8914 14.2177 13.6601 13.583 14.2007 12.7705C14.7414 11.958 15.0298 11.0038 15.0298 10.0278C15.0178 8.70478 14.4815 7.44054 13.5385 6.5124C12.5956 5.58426 11.323 5.06802 9.99995 5.07689ZM9.99995 13.2069C9.37356 13.1968 8.76413 13.0018 8.2482 12.6465C7.73227 12.2911 7.33285 11.7912 7.10011 11.2096C6.86738 10.628 6.8117 9.99056 6.94007 9.37738C7.06845 8.76421 7.37515 8.20265 7.82166 7.76323C8.26817 7.32381 8.83457 7.02613 9.44972 6.90758C10.0649 6.78903 10.7013 6.8549 11.2792 7.09691C11.857 7.33892 12.3504 7.74629 12.6975 8.26784C13.0445 8.78939 13.2297 9.40186 13.2298 10.0283C13.2221 10.8779 12.8777 11.6896 12.2722 12.2855C11.6667 12.8814 10.8495 13.2128 9.99995 13.2069Z" fill="#F3D533"/>
</g>
<defs>
<clipPath id="clip0_2_3278">
<rect width="19.9944" height="27.1719" fill="white" transform="translate(0.00292969 0.1875)"/>
</clipPath>
</defs>
</svg>
