<svg width="16" height="16" viewBox="0 0 16 16" fill="none" xmlns="http://www.w3.org/2000/svg">
<path fill-rule="evenodd" clip-rule="evenodd" d="M7.99618 0.584091C9.94855 0.589989 11.8189 1.37005 13.1969 2.75314C14.5748 4.13624 15.348 6.00944 15.3466 7.96182C15.333 11.9286 12.1762 15.1695 8.21164 15.4136L7.97845 15.45C4.01164 15.3636 0.766635 12.4591 0.645272 8.16227L0.64209 7.92955C0.644499 5.98065 1.42035 4.1124 2.79924 2.73513C4.17812 1.35787 6.04729 0.58421 7.99618 0.584091ZM9.84527 8.64864H6.14254C6.28982 11.3973 7.25845 13.7182 7.93209 13.8609L7.99618 13.8673C8.64164 13.8655 9.82027 11.6232 9.82936 8.905L9.84527 8.64864ZM13.8821 8.64864H11.2712C11.1848 10.5086 10.7685 12.2382 10.1444 13.5591C12.103 12.7018 13.5125 10.9591 13.8489 8.88318L13.8821 8.64864ZM4.71664 8.64864H2.108C2.108 10.7273 3.80436 12.6682 5.84027 13.55C5.25664 12.3177 4.85709 10.8136 4.73754 9.01773L4.71664 8.64773V8.64864ZM5.84391 2.40955L5.73482 2.45318C3.75254 3.27182 2.108 5.27273 2.108 7.22591H4.71664C4.79754 5.48955 5.16345 3.86682 5.72164 2.66227L5.84391 2.40955ZM7.98982 2.00727C7.32391 2.00909 6.29709 4.63636 6.14254 7.22591H9.84618C9.69845 4.47136 9.01118 2.15636 8.05118 2.01273L7.98982 2.00636V2.00727ZM10.1525 2.41727L10.1744 2.46455C10.7844 3.68636 11.1889 5.39045 11.2721 7.22591H13.8789C13.6112 5.06091 12.1812 3.21636 10.1516 2.41727H10.1525Z" fill="white"/>
</svg>
