<svg width="50" height="48" viewBox="0 0 50 48" fill="none" xmlns="http://www.w3.org/2000/svg">
<path d="M50 25.5C50 37.9264 38.6391 48 24.8918 48C11.1444 48 0 37.9264 0 25.5C21.5 11 0.5 37.5 25.5 38C49 37.5 29 11.5 50 25.5Z" fill="white"/>
<path d="M50 25.5C50 37.9264 38.6391 48 24.8918 48C11.1444 48 0 37.9264 0 25.5C21.5 11 0.5 37.5 25.5 38C49 37.5 29 11.5 50 25.5Z" fill="#0062F8"/>
<rect width="11" height="26" fill="#0062F8"/>
<path d="M39 0H50V26H39V0Z" fill="#0062F8"/>
<rect x="17.5913" y="29.5867" width="11.087" height="14.6396" transform="rotate(-90 17.5913 29.5867)" fill="#0062F8"/>
<path d="M11.0627 15.4562L20.163 10.4562L26.6597 24.5946L17.5912 29.5867L11.0627 15.4562Z" fill="#0062F8"/>
<path d="M29.8566 10.4562L38.9569 15.4562L32.2305 29.5867L23.3281 24.594L29.8566 10.4562Z" fill="#0062F8"/>
<path d="M29.8569 10.4563H38.9573V15.4563L30.0548 15.6736L29.8569 10.4563Z" fill="#0062F8"/>
<path d="M11.0625 10.4563H20.1628V15.4563H11.0625L11.0625 10.4563Z" fill="#0062F8"/>
</svg>
